Coordinates
version=1
nRows=26
nColumns=30
inDegrees=yes

Units are S.I. units (second, meters, Newtons, ...)
Angles are in degrees.

endheader
time	floatyaw	floatroll	floatpitch	floatx	floaty	floatz	pro_sup_l	deviation_l	flexion_l	cmc_flexion_l	cmc_abduction_l	mp_flexion_l	ip_flexion_l	2mcp_flexion_l	2mcp_abduction_l	2pm_flexion_l	2md_flexion_l	3mcp_flexion_l	3mcp_abduction_l	3pm_flexion_l	3md_flexion_l	4mcp_flexion_l	4mcp_abduction_l	4pm_flexion_l	4md_flexion_l	5mcp_flexion_l	5mcp_abduction_l	5pm_flexion_l	5md_flexion_l
0.005000	-160.147433	-5.066637	-73.570646	-0.070059	-0.124550	-0.126347	6.464964	-33.993031	-20.468757	9.753745	5.140553	-36.167884	-56.170122	62.077658	16.280039	62.292340	59.028350	70.494534	6.113831	83.508536	52.205164	53.103105	-6.214723	95.222111	70.849371	9.584315	-12.258868	93.376002	75.322037
0.015000	-160.147433	-5.066637	-73.570646	-0.069118	-0.120842	-0.125205	5.217697	-33.520056	-19.742969	7.252239	3.660096	-36.099896	-55.404685	63.212758	15.973907	61.327577	60.219776	71.868883	5.984086	85.318557	53.108570	54.324687	-6.137686	97.617815	72.837901	10.425042	-11.808916	94.105713	75.280986
0.025000	-160.147433	-5.066637	-73.570646	-0.067747	-0.116952	-0.123721	4.554082	-32.681357	-18.380861	5.150853	1.425705	-35.719400	-54.207735	63.167867	15.594407	60.184522	61.256220	71.864441	5.827749	86.068432	53.713153	54.477951	-6.042477	98.612924	74.008262	10.557127	-11.468901	94.103971	74.888228
0.035000	-160.147433	-5.066637	-73.570646	-0.066320	-0.113300	-0.122278	4.274854	-31.800448	-16.826332	3.703496	-0.923401	-35.322052	-53.085224	62.574105	15.312443	59.278109	62.452628	71.218031	5.676275	86.263172	54.287185	54.042402	-5.965937	98.878662	74.700448	10.056896	-11.303939	93.721104	74.514254
0.045000	-160.147433	-5.066637	-73.570646	-0.065099	-0.110405	-0.121116	4.181017	-31.083763	-15.414837	3.099361	-2.751465	-35.090676	-52.428439	61.895825	15.206987	58.839557	63.914890	70.461085	5.543118	86.316030	54.973743	53.450168	-5.927716	98.961795	75.162588	9.165949	-11.311841	93.288651	74.335784
0.055000	-160.147433	-5.066637	-73.570646	-0.064171	-0.108658	-0.120319	4.097398	-30.564090	-14.317563	3.369031	-3.659025	-35.047196	-52.376756	61.331532	15.265744	58.871342	65.534409	69.812646	5.432784	86.430930	55.783458	52.941776	-5.929674	99.142529	75.522373	8.163678	-11.440782	93.020563	74.360505
0.065000	-160.147433	-5.066637	-73.570646	-0.063480	-0.108148	-0.119862	3.901571	-30.139857	-13.568054	4.353382	-3.609785	-35.099049	-52.820475	60.864943	15.419891	59.205216	67.077479	69.237890	5.347798	86.614000	56.646204	52.538860	-5.960075	99.450103	75.821327	7.253252	-11.621846	92.958637	74.503255
0.075000	-160.147433	-5.066637	-73.570646	-0.062906	-0.108639	-0.119670	3.549931	-29.676722	-13.115941	5.753882	-2.888908	-35.131516	-53.510884	60.397856	15.591771	59.619158	68.314687	68.601236	5.289839	86.769657	57.472645	52.127255	-6.001293	99.774343	76.064136	6.513582	-11.798563	93.003253	74.664253
0.085000	-160.147433	-5.066637	-73.570646	-0.062347	-0.109691	-0.119654	3.081337	-29.101231	-12.870943	7.232505	-1.931319	-35.081613	-54.195358	59.870062	15.730860	59.944957	69.122786	67.812611	5.257510	86.806524	58.193113	51.584838	-6.038012	99.989603	76.251343	5.924139	-11.940595	93.010585	74.777300
0.095000	-160.147433	-5.066637	-73.570646	-0.061768	-0.110850	-0.119726	2.589289	-28.433945	-12.732983	8.512366	-1.127821	-34.957736	-54.709052	59.304669	15.824406	60.117632	69.516429	66.894167	5.245158	86.697628	58.770422	50.874917	-6.062273	100.033017	76.389695	5.426611	-12.041662	92.889124	74.821987
0.105000	-160.147433	-5.066637	-73.570646	-0.061193	-0.111802	-0.119808	2.174612	-27.758616	-12.614444	9.442094	-0.703330	-34.811066	-54.999378	58.776173	15.885869	60.160445	69.610831	65.954560	5.244851	86.480885	59.198605	50.060866	-6.073800	99.919763	76.489491	4.975752	-12.110255	92.637255	74.812020
0.115000	-160.147433	-5.066637	-73.570646	-0.060670	-0.112432	-0.119844	1.902713	-27.162169	-12.454380	10.007450	-0.695148	-34.690214	-55.097778	58.344135	15.934855	60.134158	69.549869	65.111174	5.250074	86.220865	59.497164	49.253485	-6.076973	99.711948	76.559430	4.554406	-12.160790	92.314803	74.775656
0.125000	-160.147433	-5.066637	-73.570646	-0.060229	-0.112797	-0.119799	1.784641	-26.686538	-12.222156	10.294451	-1.002486	-34.610619	-55.070373	58.005069	15.981974	60.088221	69.441651	64.420289	5.258423	85.966295	59.702539	48.540287	-6.077131	99.473731	76.604015	4.160550	-12.207782	91.985807	74.738834
0.135000	-160.147433	-5.066637	-73.570646	-0.059867	-0.113038	-0.119665	1.785530	-26.315299	-11.912803	10.426444	-1.461456	-34.552347	-54.976174	57.691650	16.024747	60.037725	69.328825	63.855975	5.271613	85.729141	59.855929	47.944186	-6.078104	99.241091	76.623731	3.790168	-12.262440	91.676953	74.715207
0.145000	-160.147433	-5.066637	-73.570646	-0.059552	-0.113297	-0.119453	1.849489	-25.993723	-11.539834	10.505445	-1.911760	-34.479613	-54.847267	57.313325	16.052816	59.968765	69.197369	63.340146	5.293182	85.491181	59.989837	47.428528	-6.081401	99.017390	76.616652	3.432779	-12.330820	91.372762	74.703691
0.155000	-160.147433	-5.066637	-73.570646	-0.059246	-0.113657	-0.119191	1.925419	-25.664271	-11.128740	10.580393	-2.239858	-34.364973	-54.690073	56.808685	16.056686	59.859821	69.008987	62.796197	5.325496	85.226528	60.118923	46.934148	-6.086619	98.788355	76.580640	3.079565	-12.413324	91.040154	74.692597
0.165000	-160.147433	-5.066637	-73.570646	-0.058930	-0.114123	-0.118912	1.983181	-25.295926	-10.710027	10.647499	-2.396188	-34.203535	-54.497716	56.177944	16.034345	59.702381	68.735744	62.191641	5.367776	84.922638	60.239630	46.420220	-6.092410	98.541530	76.515688	2.733274	-12.505532	90.659738	74.667804
0.175000	-160.147433	-5.066637	-73.570646	-0.058608	-0.114647	-0.118641	2.017332	-24.893626	-10.310420	10.672890	-2.390416	-34.011977	-54.262839	55.479644	15.992653	59.508936	68.380010	61.548409	5.416076	84.587921	60.338157	45.885620	-6.097449	98.277534	76.425508	2.409949	-12.600149	90.242698	74.620827
0.185000	-160.147433	-5.066637	-73.570646	-0.058301	-0.115163	-0.118394	2.040877	-24.487176	-9.944487	10.621889	-2.272219	-33.816656	-53.985215	54.797586	15.943702	59.306071	67.973558	60.921177	5.465008	84.244700	60.401705	45.362884	-6.101053	98.008896	76.317280	2.130737	-12.689597	89.824871	74.552649
0.195000	-160.147433	-5.066637	-73.570646	-0.058029	-0.115621	-0.118170	2.073971	-24.109733	-9.611137	10.480887	-2.106936	-33.639855	-53.674323	54.199227	15.898940	59.119206	67.561339	60.361327	5.510122	83.914970	60.426752	44.893325	-6.103313	97.750521	76.199338	1.909774	-12.768495	89.444883	74.471797
0.205000	-160.147433	-5.066637	-73.570646	-0.057800	-0.116006	-0.117957	2.132913	-23.779325	-9.297160	10.263429	-1.954283	-33.492145	-53.349225	53.708224	15.864565	58.959437	67.182094	59.888819	5.549521	83.609001	60.420757	44.500877	-6.104821	97.509775	76.078092	1.746184	-12.835052	89.122100	74.388684
0.215000	-160.147433	-5.066637	-73.570646	-0.057606	-0.116334	-0.117742	2.223360	-23.492400	-8.985561	10.000160	-1.854258	-33.373679	-53.036363	53.302585	15.840310	58.820478	66.855718	59.485665	5.583873	83.323119	60.397689	44.179775	-6.106213	97.282583	75.956188	1.624240	-12.890825	88.848257	74.310217
0.225000	-160.147433	-5.066637	-73.570646	-0.057427	-0.116641	-0.117517	2.339196	-23.229913	-8.663859	9.720269	-1.820619	-33.281177	-52.763850	52.934110	15.821426	58.686588	66.580118	59.110137	5.615052	83.046094	60.370925	43.900073	-6.107735	97.056951	75.833145	1.519958	-12.939105	88.596009	74.237534
0.235000	-160.147433	-5.066637	-73.570646	-0.057244	-0.116957	-0.117281	2.466283	-22.969571	-8.328337	9.436590	-1.841163	-33.214099	-52.552182	52.554682	15.802116	58.545146	66.335311	58.719860	5.644543	82.768248	60.347811	43.624041	-6.109119	96.820470	75.707865	1.409631	-12.983053	88.336603	74.166992
0.245000	-160.147433	-5.066637	-73.570646	-0.057046	-0.117299	-0.117037	2.588973	-22.696302	-7.983434	9.144172	-1.884509	-33.175112	-52.405217	52.135495	15.778547	58.395121	66.092412	58.290417	5.672684	82.487149	60.328695	43.322917	-6.109808	96.566883	75.580991	1.276962	-13.024703	88.054954	74.092592
0.255000	-160.147433	-5.066637	-73.570646	-0.056832	-0.117670	-0.116794	2.696548	-22.406624	-7.638378	8.832816	-1.912694	-33.165294	-52.307481	51.673541	15.750395	58.246584	65.826003	57.822339	5.698988	82.207726	60.310160	42.987042	-6.109424	96.298747	75.455472	1.117570	-13.065096	87.754744	74.008475
